<svg width="144" height="52" viewBox="0 0 144 52" fill="none" xmlns="http://www.w3.org/2000/svg">
    <path
        d="M10.0813 12.28C10.2813 11.92 10.5213 11.56 10.8013 11.28C10.5213 9.84 10.2413 8.4 9.92125 6.96C9.72125 6.2 9.44125 5.32 9.64125 4.4C9.88125 3.36 10.6813 2.96 11.5213 2.96C12.0013 2.96 12.5213 3.08 12.9613 3.32C12.9213 2.76 13.0013 2.24 13.2413 1.72C13.6013 0.959999 14.5213 0.439999 15.3613 0.599997C16.6013 0.759999 17.2013 1.72 17.4413 2.8C17.6813 2.68 17.9613 2.64 18.2013 2.64C19.4012 2.64 20.6013 3.6 20.8013 4.88C20.9613 7.16 20.2813 9.28 19.7613 11.44C20.0413 11.64 20.2813 11.92 20.4813 12.2C25.0013 13.8 28.7613 17.6 29.6413 23.6C30.4013 28.8 29.3613 34.08 27.5613 38.96C27.1613 40 26.8413 40.96 26.5213 41.76C24.8413 45.84 19.2013 51.08 15.4813 51.12C11.4013 51.12 5.84125 45.36 4.36125 41.84C2.00125 36.12 0.28125 29.92 1.12125 23.68C1.96125 17.72 5.64125 13.92 10.0813 12.28ZM13.8413 9.96C14.8013 9.84 15.8413 9.88 16.8413 10.08C17.0013 7.44 17.2413 4.8 16.7613 2.32C16.4813 1.6 15.7613 1.16 15.0413 1.16C14.5213 1.16 14.0013 1.4 13.7213 1.96C13.4413 2.56 13.4413 3.28 13.5213 4C13.8013 5.96 13.8813 7.96 13.8413 9.96ZM17.2813 10.16C18.0413 10.4 18.7213 10.68 19.3213 11.12C19.6013 9.88 19.8413 8.68 20.0413 7.48C20.4013 5.92 20.4813 4.04 18.8013 3.32C18.2413 3.12 17.8413 3.2 17.5213 3.4C17.5613 3.76 17.5613 4.08 17.5613 4.4C17.5213 6.36 17.4413 8.28 17.2813 10.16ZM11.2413 10.92C11.9213 10.44 12.7213 10.16 13.5613 10C13.4813 8 13.2813 6.04 13.0013 4.08C12.6013 3.76 12.0813 3.52 11.5613 3.52C11.2813 3.52 11.0013 3.6 10.7613 3.72C9.80125 4.44 10.2013 5.72 10.4813 6.8C10.7613 8.16 11.0413 9.52 11.2413 10.92ZM23.9213 25.6L24.1613 25.64C24.1613 25.56 24.6413 18.48 23.2013 13.8L22.9613 13.88C24.4013 18.52 23.9213 25.56 23.9213 25.6ZM6.72125 25.68H6.96125C6.96125 25.6 6.44125 18.56 7.84125 13.92L7.64125 13.84C6.20125 18.52 6.72125 25.6 6.72125 25.68ZM24.0413 25.84L16.6013 30.2C16.2813 30.48 15.8413 30.6 15.4413 30.6C15.0413 30.6 14.6413 30.48 14.2813 30.2L6.84125 25.88C6.40125 26.08 3.28125 27.72 3.32125 31.16C3.32125 32.2 3.80125 38.36 6.08125 43.12C8.44125 48.04 13.1613 50.76 15.4813 50.76C17.8413 50.72 22.5213 48 24.8813 43.08C27.1213 38.32 27.6013 32.12 27.6013 31.12C27.5613 27.68 24.4413 26.04 24.0413 25.84ZM6.64125 33.04H5.80125C5.68125 33.08 5.56125 33.08 5.40125 33.08C5.64125 33.44 5.84125 33.8 6.12125 34.16C6.52125 34.6 6.92125 35.04 7.48125 35.28C6.20125 35.08 5.36125 33.96 4.64125 32.96L4.40125 32.56C5.36125 32.48 6.40125 32.32 7.40125 32.32C8.04125 32.32 8.64125 32.4 9.24125 32.52C7.92125 32 6.28125 31.44 5.64125 31.4C4.68125 31.28 3.60125 31.64 3.60125 31.64C3.88125 30.68 4.88125 29.8 5.52125 29.52C5.92125 29.32 9.12125 30.48 11.2013 32C13.1213 33.36 13.4813 32.88 13.4813 32.88C13.4813 32.88 13.1613 33.56 12.2413 33.56C11.8813 33.56 11.4013 33.44 10.8413 33.16C10.8013 33.12 10.6813 33.08 10.6013 33.04C11.4413 33.72 12.0813 34.6 12.5213 35.56C12.1613 35.16 11.8013 34.72 11.4013 34.36C11.0413 35.24 10.2413 35.88 9.32125 35.88C7.92125 35.88 7.00125 34.64 7.00125 33.32L7.04125 33.12C7.04125 33.08 7.04125 33.04 7.04125 33C6.92125 33 6.76125 33 6.64125 33.04ZM18.1613 35.8L18.6413 35.36C19.2813 34.72 19.8813 34.04 20.6013 33.56C20.4013 33.64 20.1613 33.76 20.0413 33.8C19.4813 34.08 19.0013 34.2 18.6413 34.2C17.7213 34.2 17.4013 33.56 17.4013 33.56C17.4013 33.56 17.8013 34 19.6813 32.64C21.7613 31.12 24.9213 29.92 25.3613 30.12C26.0013 30.44 27.0013 31.28 27.2813 32.24C27.2813 32.24 26.2413 31.92 25.2413 32C24.6813 32.08 23.1613 32.56 21.8813 33.04C20.9213 33.6 20.0013 34.28 19.2013 35.08C20.4813 34.36 21.9613 34 23.4813 34C24.5213 34 25.5613 34.16 26.5213 34.48C23.7213 34.52 21.0813 34.76 18.4812 35.68L18.1613 35.8ZM8.32125 33.88C8.40125 33.88 8.48125 33.8 8.48125 33.72C8.48125 33.64 8.40125 33.6 8.32125 33.6C8.24125 33.6 8.16125 33.64 8.16125 33.72C8.16125 33.84 8.24125 33.88 8.32125 33.88ZM8.48125 34.28L8.04125 34.68C8.32125 35.04 8.76125 35.32 9.32125 35.32C9.76125 35.32 10.1613 35.12 10.4413 34.84L10.0013 34.4C9.80125 34.6 9.56125 34.68 9.32125 34.68C8.96125 34.72 8.68125 34.56 8.48125 34.28ZM19.8013 35.76C21.1213 35.36 22.5613 35.04 23.9613 35.2C22.5613 35.16 21.1613 35.48 19.8013 35.76ZM10.6813 35.88C11.4013 35.8 12.1613 35.8 12.8813 35.76C13.1613 35.76 13.0413 35.4 12.8813 35.24C13.9213 36.2 11.1613 35.84 10.6813 35.88ZM14.3213 43.08C13.8413 42.64 13.6813 42.04 14.0413 41.48C13.8813 42.24 14.0013 42.4 14.3213 43.08ZM17.2413 42.92C17.6013 42.44 17.5213 42 17.4413 41.48C17.6813 41.92 17.7613 42.6 17.2413 42.92ZM14.8413 42.48L14.9613 42.6C15.0013 42.68 15.0413 42.76 15.0413 42.88C14.8013 42.84 14.5213 42.4 14.7613 42.2C14.7613 42.32 14.8013 42.4 14.8413 42.48ZM16.4413 42.88C16.4413 42.68 16.7213 42.48 16.6013 42.28C16.9613 42.32 16.6813 42.88 16.4413 42.88ZM11.4013 44.32L11.1213 44.2C11.0813 44.2 11.0413 44.2 11.0013 44.16C12.6813 44.64 14.2413 44.76 15.9213 44.56C17.6413 44.6 19.2413 44.32 20.8413 43.88C20.8013 43.92 20.7613 43.92 20.7213 43.92L20.4813 44.04C20.4813 44.04 20.4813 44.04 20.4413 44.04L20.4013 44.08C20.2813 44.12 20.1213 44.24 19.9213 44.4C20.0013 44.36 18.7213 45.12 18.6813 45.08C18.6813 45.08 18.5213 45.16 18.2013 45.24C17.4413 45.4 16.7213 45.4 16.0013 45.48C15.2413 45.48 14.5213 45.56 13.7613 45.44C13.4413 45.36 13.2813 45.28 13.2813 45.28C13.2813 45.32 11.9213 44.64 12.0013 44.64C11.7613 44.52 11.5613 44.4 11.4813 44.36L11.4413 44.32H11.4013ZM14.5213 44.28C15.7213 44.04 17.0013 44.12 18.2413 44.08C17.0013 44.2 15.7613 44.12 14.5213 44.28ZM12.8413 44.72C13.2013 44.88 13.5213 45 13.7613 45.04C14.5213 45.12 17.0013 45 17.9213 44.84C18.1213 44.8 18.3613 44.68 18.6413 44.56C18.1613 44.68 17.6813 44.76 17.2013 44.76L15.9613 44.8C14.8813 44.92 13.8813 44.92 12.8413 44.72ZM13.5613 46.4C13.2413 46.24 13.0413 46.12 13.5613 46.32C13.7613 46.44 14.3613 46.56 14.6413 46.56H15.9213C16.2413 46.56 16.5613 46.52 16.7613 46.52C17.0013 46.52 17.1613 46.52 17.1613 46.52C17.3613 46.48 17.5213 46.48 17.5213 46.48C17.5213 46.48 17.6413 46.48 17.7613 46.44C17.9213 46.44 18.1213 46.36 18.2413 46.28C18.7213 46 18.5613 46.16 18.2812 46.36C18.2812 46.32 18.1213 46.44 17.8813 46.52C17.6813 46.56 17.4813 46.6 17.4813 46.6C17.4813 46.6 17.3613 46.6 17.1613 46.6C16.3213 46.64 15.4813 46.68 14.6413 46.64C14.4413 46.64 14.3213 46.64 14.3213 46.64C14.3213 46.68 13.4813 46.4 13.5613 46.4ZM44.3 12.28C44.5 11.92 44.74 11.56 45.02 11.28C44.74 9.84 44.46 8.4 44.14 6.96C43.94 6.2 43.66 5.32 43.86 4.4C44.1 3.36 44.9 2.96 45.74 2.96C46.22 2.96 46.74 3.08 47.18 3.32C47.14 2.76 47.22 2.24 47.46 1.72C47.82 0.959999 48.74 0.439999 49.58 0.599997C50.82 0.759999 51.42 1.72 51.66 2.8C51.9 2.68 52.18 2.64 52.42 2.64C53.62 2.64 54.82 3.6 55.02 4.88C55.18 7.16 54.5 9.28 53.98 11.44C54.26 11.64 54.5 11.92 54.7 12.2C59.22 13.8 62.98 17.6 63.86 23.6C64.62 28.8 63.58 34.08 61.78 38.96C61.38 40 61.06 40.96 60.74 41.76C59.06 45.84 53.42 51.08 49.7 51.12C45.62 51.12 40.06 45.36 38.58 41.84C36.22 36.12 34.5 29.92 35.34 23.68C36.18 17.72 39.86 13.92 44.3 12.28ZM48.06 9.96C49.02 9.84 50.06 9.88 51.06 10.08C51.22 7.44 51.46 4.8 50.98 2.32C50.7 1.6 49.98 1.16 49.26 1.16C48.74 1.16 48.22 1.4 47.94 1.96C47.66 2.56 47.66 3.28 47.74 4C48.02 5.96 48.1 7.96 48.06 9.96ZM51.5 10.16C52.26 10.4 52.94 10.68 53.54 11.12C53.82 9.88 54.06 8.68 54.26 7.48C54.62 5.92 54.7 4.04 53.02 3.32C52.46 3.12 52.06 3.2 51.74 3.4C51.78 3.76 51.78 4.08 51.78 4.4C51.74 6.36 51.66 8.28 51.5 10.16ZM45.46 10.92C46.14 10.44 46.94 10.16 47.78 10C47.7 8 47.5 6.04 47.22 4.08C46.82 3.76 46.3 3.52 45.78 3.52C45.5 3.52 45.22 3.6 44.98 3.72C44.02 4.44 44.42 5.72 44.7 6.8C44.98 8.16 45.26 9.52 45.46 10.92ZM58.14 25.6L58.38 25.64C58.38 25.56 58.86 18.48 57.42 13.8L57.18 13.88C58.62 18.52 58.14 25.56 58.14 25.6ZM40.94 25.68H41.18C41.18 25.6 40.66 18.56 42.06 13.92L41.86 13.84C40.42 18.52 40.94 25.6 40.94 25.68ZM58.26 25.84L50.82 30.2C50.5 30.48 50.06 30.6 49.66 30.6C49.26 30.6 48.86 30.48 48.5 30.2L41.06 25.88C40.62 26.08 37.5 27.72 37.54 31.16C37.54 32.2 38.02 38.36 40.3 43.12C42.66 48.04 47.38 50.76 49.7 50.76C52.06 50.72 56.74 48 59.1 43.08C61.34 38.32 61.82 32.12 61.82 31.12C61.78 27.68 58.66 26.04 58.26 25.84ZM40.86 33.04H40.02C39.9 33.08 39.78 33.08 39.62 33.08C39.86 33.44 40.06 33.8 40.34 34.16C40.74 34.6 41.14 35.04 41.7 35.28C40.42 35.08 39.58 33.96 38.86 32.96L38.62 32.56C39.58 32.48 40.62 32.32 41.62 32.32C42.26 32.32 42.86 32.4 43.46 32.52C42.14 32 40.5 31.44 39.86 31.4C38.9 31.28 37.82 31.64 37.82 31.64C38.1 30.68 39.1 29.8 39.74 29.52C40.14 29.32 43.34 30.48 45.42 32C47.34 33.36 47.7 32.88 47.7 32.88C47.7 32.88 47.38 33.56 46.46 33.56C46.1 33.56 45.62 33.44 45.06 33.16C45.02 33.12 44.9 33.08 44.82 33.04C45.66 33.72 46.3 34.6 46.74 35.56C46.38 35.16 46.02 34.72 45.62 34.36C45.26 35.24 44.46 35.88 43.54 35.88C42.14 35.88 41.22 34.64 41.22 33.32L41.26 33.12C41.26 33.08 41.26 33.04 41.26 33C41.14 33 40.98 33 40.86 33.04ZM52.38 35.8L52.86 35.36C53.5 34.72 54.1 34.04 54.82 33.56C54.62 33.64 54.38 33.76 54.26 33.8C53.7 34.08 53.22 34.2 52.86 34.2C51.94 34.2 51.62 33.56 51.62 33.56C51.62 33.56 52.02 34 53.9 32.64C55.98 31.12 59.14 29.92 59.58 30.12C60.22 30.44 61.22 31.28 61.5 32.24C61.5 32.24 60.46 31.92 59.46 32C58.9 32.08 57.38 32.56 56.1 33.04C55.14 33.6 54.22 34.28 53.42 35.08C54.7 34.36 56.18 34 57.7 34C58.74 34 59.78 34.16 60.74 34.48C57.94 34.52 55.3 34.76 52.7 35.68L52.38 35.8ZM42.54 33.88C42.62 33.88 42.7 33.8 42.7 33.72C42.7 33.64 42.62 33.6 42.54 33.6C42.46 33.6 42.38 33.64 42.38 33.72C42.38 33.84 42.46 33.88 42.54 33.88ZM42.7 34.28L42.26 34.68C42.54 35.04 42.98 35.32 43.54 35.32C43.98 35.32 44.38 35.12 44.66 34.84L44.22 34.4C44.02 34.6 43.78 34.68 43.54 34.68C43.18 34.72 42.9 34.56 42.7 34.28ZM54.02 35.76C55.34 35.36 56.78 35.04 58.18 35.2C56.78 35.16 55.38 35.48 54.02 35.76ZM44.9 35.88C45.62 35.8 46.38 35.8 47.1 35.76C47.38 35.76 47.26 35.4 47.1 35.24C48.14 36.2 45.38 35.84 44.9 35.88ZM48.54 43.08C48.06 42.64 47.9 42.04 48.26 41.48C48.1 42.24 48.22 42.4 48.54 43.08ZM51.46 42.92C51.82 42.44 51.74 42 51.66 41.48C51.9 41.92 51.98 42.6 51.46 42.92ZM49.06 42.48L49.18 42.6C49.22 42.68 49.26 42.76 49.26 42.88C49.02 42.84 48.74 42.4 48.98 42.2C48.98 42.32 49.02 42.4 49.06 42.48ZM50.66 42.88C50.66 42.68 50.94 42.48 50.82 42.28C51.18 42.32 50.9 42.88 50.66 42.88ZM45.62 44.32L45.34 44.2C45.3 44.2 45.26 44.2 45.22 44.16C46.9 44.64 48.46 44.76 50.14 44.56C51.86 44.6 53.46 44.32 55.06 43.88C55.02 43.92 54.98 43.92 54.94 43.92L54.7 44.04C54.7 44.04 54.7 44.04 54.66 44.04L54.62 44.08C54.5 44.12 54.34 44.24 54.14 44.4C54.22 44.36 52.94 45.12 52.9 45.08C52.9 45.08 52.74 45.16 52.42 45.24C51.66 45.4 50.94 45.4 50.22 45.48C49.46 45.48 48.74 45.56 47.98 45.44C47.66 45.36 47.5 45.28 47.5 45.28C47.5 45.32 46.14 44.64 46.22 44.64C45.98 44.52 45.78 44.4 45.7 44.36L45.66 44.32H45.62ZM48.74 44.28C49.94 44.04 51.22 44.12 52.46 44.08C51.22 44.2 49.98 44.12 48.74 44.28ZM47.06 44.72C47.42 44.88 47.74 45 47.98 45.04C48.74 45.12 51.22 45 52.14 44.84C52.34 44.8 52.58 44.68 52.86 44.56C52.38 44.68 51.9 44.76 51.42 44.76L50.18 44.8C49.1 44.92 48.1 44.92 47.06 44.72ZM47.78 46.4C47.46 46.24 47.26 46.12 47.78 46.32C47.98 46.44 48.58 46.56 48.86 46.56H50.14C50.46 46.56 50.78 46.52 50.98 46.52C51.22 46.52 51.38 46.52 51.38 46.52C51.58 46.48 51.74 46.48 51.74 46.48C51.74 46.48 51.86 46.48 51.98 46.44C52.14 46.44 52.34 46.36 52.46 46.28C52.94 46 52.78 46.16 52.5 46.36C52.5 46.32 52.34 46.44 52.1 46.52C51.9 46.56 51.7 46.6 51.7 46.6C51.7 46.6 51.58 46.6 51.38 46.6C50.54 46.64 49.7 46.68 48.86 46.64C48.66 46.64 48.54 46.64 48.54 46.64C48.54 46.68 47.7 46.4 47.78 46.4ZM70.1588 28.96L69.8788 28.36C77.7188 25.72 84.7588 20.12 87.9188 15.52C88.3188 14.96 87.9988 14.4 87.4388 14.44L74.3988 14.92C73.1988 14.96 72.6388 14 72.6388 12.8L94.8388 12C97.2388 11.92 99.1588 13.76 97.6788 15.92C96.7588 17.24 95.5988 18.44 94.3188 19.56C96.9588 19.52 99.3188 19.84 101.079 20.76C103.399 21.92 104.079 24.8 102.399 26.72C101.639 27.56 100.639 28 99.5188 28C98.0788 28 96.5588 27.24 95.5188 25.64C94.5988 24.28 93.7588 22.36 92.0788 21.28C85.5988 25.72 76.6388 27.96 70.1588 28.96ZM82.5988 47.68L82.4788 47.24C83.1588 46.96 83.4788 46.4 83.4788 45.28V37.44C79.6788 37.64 75.7988 37.8 71.8788 37.8C66.8788 37.8 66.1987 31.72 70.0788 29.76L70.2788 30C69.6388 30.44 69.5188 31 70.5988 31C81.3988 31 91.7188 29.8 101.679 29.8C106.679 29.8 107.359 36 103.479 38.44L103.279 38.36C103.799 37.76 104.039 36.6 102.959 36.6C99.5188 36.6 96.0388 36.72 92.5188 36.92V40.84C92.5188 45.68 86.8788 47.68 82.5988 47.68ZM114.479 35.52L114.399 35.12C115.639 33.36 118.319 32.72 120.679 32.72C122.079 32.72 123.239 33.08 124.039 33.8L133.279 33.4C134.559 33.12 134.799 31.52 134.799 29.36V21.48L130.479 21.84C129.279 21.96 128.719 20.96 128.719 19.76L134.799 19.24V15.04C134.799 13.4 134.239 12.6 133.319 12.6C132.919 12.6 132.439 12.76 131.879 13.12L131.599 12.72C133.559 11.04 135.919 10.32 139.079 10.32C141.719 10.32 143.519 11.68 143.519 14.04V26.64C143.519 29.92 140.199 32.48 135.839 33.28L139.519 33.12C141.479 33.04 143.119 34.4 143.119 36.32V41.24C143.119 46.08 138.199 47.28 133.919 47.28L133.799 46.84C134.239 46.56 134.399 46.16 134.399 45.28V43.04C132.399 45.44 127.479 47.28 122.039 47.28C118.079 47.28 116.399 45.44 116.399 42.12V36.24C116.399 35.48 115.999 35.12 115.479 35.12C115.159 35.12 114.799 35.24 114.479 35.52ZM107.879 32.6L107.519 32.08C114.479 28.96 117.919 22.68 119.079 16.6C119.199 16 118.799 15.6 118.319 15.64L111.639 16.08C110.439 16.16 109.879 15.24 109.879 14.04L124.959 13.24C127.359 13.12 128.639 14.48 128.039 16.68C127.519 18.56 126.559 20.36 125.279 22C128.159 22.72 131.039 24.24 132.239 26.12C133.359 27.84 132.599 30.28 130.639 30.92C130.279 31.04 129.919 31.12 129.559 31.12C127.919 31.12 126.559 29.92 126.199 28.04C125.839 26.2 125.999 24 124.599 22.8C120.399 27.6 113.559 31.08 107.879 32.6ZM125.119 36.32V42.56C125.119 43 125.559 43.2 126.039 43.2C128.999 43.2 132.319 42.88 134.399 42.04V35.52L125.079 36C125.079 36.04 125.079 36.08 125.079 36.12L125.119 36.32Z"
        fill="black" />
</svg>
    