<svg width="52" height="30" viewBox="0 0 52 30" fill="none" xmlns="http://www.w3.org/2000/svg">
    <rect x="1" y="1" width="50" height="28" rx="9" stroke="black" stroke-width="2" />
    <path
        d="M18.8 11.408L21.232 11.2V9.216C21.232 8.56 21.008 8.24 20.64 8.24C20.48 8.24 20.288 8.304 20.064 8.448L19.952 8.288C20.736 7.616 21.68 7.328 22.944 7.328C24 7.328 24.72 7.872 24.72 8.816V13.728C24.72 15.328 23.68 16.24 20.992 16.8C19.312 17.152 17.2 17.568 15.952 17.808C15.088 17.984 15.008 18.96 15.92 19.168C16.608 19.328 17.632 19.408 18.752 19.408C21.152 19.408 24.064 19.056 25.36 18.48L25.456 18.688C24.08 21.344 21.296 22.032 18.704 22.032C16.672 22.032 14.032 21.152 14.032 19.376C14.032 18.432 14.608 17.792 15.808 17.568C17.2 17.312 19.056 16.976 20.416 16.672C21.216 16.496 21.232 15.696 21.232 14.72V12.096L19.504 12.24C19.024 12.288 18.8 11.888 18.8 11.408ZM10.464 16.784L10.32 16.576C13.152 15.088 14.368 12.56 14.944 9.904C14.992 9.664 14.832 9.504 14.64 9.52L11.968 9.696C11.488 9.728 11.264 9.36 11.264 8.88L17.296 8.56C18.256 8.512 18.784 9.056 18.528 9.936C18.288 10.8 17.856 11.584 17.296 12.304C18.512 12.672 19.696 13.408 20.208 14.192C20.656 14.88 20.352 15.856 19.568 16.112C19.424 16.16 19.28 16.192 19.136 16.192C18.48 16.192 17.936 15.712 17.792 14.96C17.648 14.192 17.744 13.136 17.056 12.592C15.392 14.576 12.752 16 10.464 16.784ZM27.184 13.2L27.12 12.992C29.824 12.064 31.536 10.336 32.288 8.912C32.496 8.528 32.4 8.224 32.048 8.224C31.952 8.224 31.824 8.256 31.664 8.32L31.536 8.192C32.24 7.632 33.328 7.296 34.64 7.376C35.76 7.44 36.4 8.176 35.984 9.04C35.872 9.264 35.744 9.472 35.584 9.68C37.424 9.616 39.024 9.824 39.776 10.416C40.576 11.056 40.704 11.92 40.096 12.544C39.824 12.832 39.456 12.992 39.072 12.992C38.544 12.992 37.968 12.688 37.536 12.016C36.992 11.184 36.336 10.48 35.216 10.096C33.44 11.904 29.808 12.992 27.184 13.2ZM27.472 13.744L27.52 13.856C27.312 14.048 27.6 14.144 28.064 14.144C29.968 14.144 31.472 14.096 32.784 14.016V13.28C32.784 12.992 32.72 12.832 32.528 12.832C32.448 12.832 32.352 12.848 32.24 12.912L32.112 12.8C32.656 12.176 33.456 11.792 34.56 11.792C35.616 11.792 36.4 12.336 36.4 13.28V13.76C37.36 13.696 38.336 13.664 39.44 13.664C43.328 13.664 41.728 17.408 39.04 18.016C39.792 18.448 40.192 19.024 40.192 19.744C40.192 21.408 38.016 22.352 34.32 22.352C30.624 22.352 28.448 21.408 28.448 19.744C28.448 18.08 30.624 17.136 34.32 17.136C36.304 17.136 37.856 17.408 38.864 17.92C40.576 17.584 41.296 16.064 39.856 16.064C36.256 16.064 33.536 16.544 28.176 16.544C25.744 16.544 25.92 14.24 27.472 13.744ZM31.872 19.744C31.872 20.944 32.816 21.552 34.32 21.552C35.824 21.552 36.768 20.944 36.768 19.744C36.768 18.544 35.824 17.936 34.32 17.936C32.816 17.936 31.872 18.544 31.872 19.744Z"
        fill="black" />
</svg>
    